<?xml version="1.0" standalone="no"?>
<!DOCTYPE svg PUBLIC "-//W3C//DTD SVG 20010904//EN"
 "http://www.w3.org/TR/2001/REC-SVG-20010904/DTD/svg10.dtd">
<svg version="1.0" xmlns="http://www.w3.org/2000/svg"
 width="500.000000pt" height="500.000000pt" viewBox="0 0 500.000000 500.000000"
 preserveAspectRatio="xMidYMid meet">

<g transform="translate(0.000000,500.000000) scale(0.100000,-0.100000)"
fill="#000000" stroke="none">
<path d="M2765 3360 c16 -57 106 -229 153 -291 59 -77 148 -142 229 -165 132
-39 328 -4 409 71 15 14 31 25 35 25 5 0 25 24 44 53 26 40 34 60 31 85 -3 18
-1 30 4 27 5 -3 7 -13 4 -23 -5 -13 -4 -14 4 -3 5 8 9 24 7 37 -1 13 1 21 5
19 5 -3 10 1 13 9 11 29 -39 10 -64 -24 -121 -165 -348 -214 -554 -121 -72 33
-162 117 -189 177 -16 34 -116 142 -116 126 0 -4 -5 0 -11 8 -8 11 -9 9 -4
-10z"/>
<path d="M3687 3250 c-3 -11 -1 -20 4 -20 5 0 9 9 9 20 0 11 -2 20 -4 20 -2 0
-6 -9 -9 -20z"/>
<path d="M1610 2705 c-1 -5 -2 -14 -1 -19 1 -5 -6 -3 -15 5 -10 8 -15 9 -11 2
4 -7 -4 -15 -21 -21 -46 -17 -63 -36 -68 -77 -3 -22 -14 -70 -26 -106 -17 -58
-23 -66 -41 -61 -11 3 -18 1 -15 -4 7 -10 -19 -14 -99 -17 -36 -1 -49 -5 -42
-13 11 -14 -18 -27 -96 -45 -33 -7 -75 -21 -94 -31 -37 -21 -67 -17 -57 7 3 8
1 15 -4 15 -6 0 -10 -4 -10 -10 0 -18 -15 -11 -55 25 -21 20 -40 33 -43 30
-14 -13 56 -130 105 -176 87 -82 184 -113 281 -89 134 32 231 183 298 469 14
57 23 109 20 115 -3 6 -5 7 -6 1z"/>
<path d="M1037 2343 c3 -7 11 -13 19 -13 8 0 14 6 14 13 0 7 -8 13 -19 13 -11
0 -17 -5 -14 -13z"/>
<path d="M3606 2133 c-6 -14 -5 -15 5 -6 7 7 10 15 7 18 -3 3 -9 -2 -12 -12z"/>
<path d="M4161 2092 c-1 -7 -13 -25 -28 -40 -16 -15 -36 -40 -46 -55 -10 -15
-23 -25 -29 -21 -6 4 -8 3 -5 -3 8 -12 -30 -49 -40 -40 -4 4 1 13 10 20 12 8
14 16 7 27 -8 13 -10 13 -10 -2 0 -11 -5 -15 -15 -12 -18 7 -19 0 -5 -26 8
-15 4 -23 -20 -40 -17 -12 -30 -17 -30 -12 0 5 -24 10 -52 11 -29 1 -54 6 -56
11 -2 6 -18 10 -35 10 -42 0 -114 25 -96 33 8 4 1 3 -15 0 -23 -5 -27 -3 -21
8 7 12 6 12 -7 1 -10 -8 -19 -9 -22 -4 -3 6 1 12 9 16 8 3 14 16 14 28 l-2 23
-4 -22 c-6 -33 -32 -28 -49 10 l-15 32 7 -45 c14 -104 72 -186 159 -225 134
-60 235 -33 318 85 38 55 94 208 84 232 -4 10 -6 10 -6 0z m-476 -162 c3 -6
-1 -7 -9 -4 -18 7 -21 14 -7 14 6 0 13 -4 16 -10z m122 -66 c-3 -3 -12 -4 -19
-1 -8 3 -5 6 6 6 11 1 17 -2 13 -5z m60 -10 c-3 -3 -12 -4 -19 -1 -8 3 -5 6 6
6 11 1 17 -2 13 -5z"/>
<path d="M3735 2070 c3 -5 8 -10 11 -10 2 0 4 5 4 10 0 6 -5 10 -11 10 -5 0
-7 -4 -4 -10z"/>
<path d="M3620 2029 c0 -9 7 -22 15 -29 13 -11 15 -8 14 16 0 16 -3 23 -6 15
-5 -11 -7 -11 -14 0 -7 11 -9 11 -9 -2z"/>
<path d="M3772 2008 c-8 -11 -6 -17 11 -27 15 -10 22 -10 25 -2 2 6 8 11 14
11 6 0 8 -6 5 -14 -3 -8 0 -13 9 -12 8 1 14 5 14 9 0 4 0 11 0 16 0 5 -8 11
-17 14 -10 2 -25 8 -34 11 -9 4 -21 1 -27 -6z m33 -8 c3 -5 -1 -10 -9 -10 -9
0 -16 5 -16 10 0 6 4 10 9 10 6 0 13 -4 16 -10z"/>
<path d="M3873 1978 c0 -7 14 -14 31 -15 l31 -3 -29 15 c-34 18 -33 18 -33 3z"/>
<path d="M3949 1971 c9 -6 10 -10 2 -14 -8 -4 -8 -5 1 -3 20 4 21 26 1 26 -14
0 -15 -2 -4 -9z"/>
<path d="M3920 1929 c0 -5 5 -7 10 -4 6 3 10 8 10 11 0 2 -4 4 -10 4 -5 0 -10
-5 -10 -11z"/>
<path d="M3950 1914 c0 -14 3 -14 15 -4 8 7 15 14 15 16 0 2 -7 4 -15 4 -8 0
-15 -7 -15 -16z"/>
</g>
</svg>
